<?xml version="1.0" encoding="utf-8"?>
<svg xmlns="http://www.w3.org/2000/svg" xmlns:xlink="http://www.w3.org/1999/xlink" style="margin: auto; background: rgb(255, 255, 255); display: block; z-index: 1; position: relative; shape-rendering: auto;" width="1728" height="926" preserveAspectRatio="xMidYMid" viewBox="0 0 1728 926">
<g transform="translate(864,463) scale(1,1) translate(-864,-463)"><linearGradient id="lg-0.7868952325466338" x1="0" x2="1" y1="0" y2="0">
  <stop stop-color="#ff00ff" offset="0"></stop>
  <stop stop-color="#00ffff" offset="1"></stop>
</linearGradient><path d="M 1446 463 C 1446 646 1187 863 1013 920 C 839 977 540 924 433 776 C 326 628 278 263 385 115 C 492 -33 833 -33 1007 23 C 1181 79 1446 280 1446 463" fill="url(#lg-0.7868952325466338)" opacity="0.4">
  <animate attributeName="d" dur="10s" repeatCount="indefinite" keyTimes="0;0.3333333333333333;0.6666666666666666;1" calcmod="spline" keySplines="0.3 0.1 0.7 0.9;0.3 0.1 0.7 0.9;0.3 0.1 0.7 0.9" begin="-4s" values="M 1446 463 C 1446 646 1187 863 1013 920 C 839 977 540 924 433 776 C 326 628 278 263 385 115 C 492 -33 833 -33 1007 23 C 1181 79 1446 280 1446 463;M 1504 463 C 1504 643 1204 924 1032 980 C 860 1036 504 947 398 801 C 292 655 229 225 335 79 C 441 -67 835 -33 1007 23 C 1179 79 1504 283 1504 463;M 1436 463 C 1436 647 1172 816 997 873 C 822 930 461 983 353 834 C 245 685 331 302 439 154 C 547 6 841 -61 1016 -4 C 1191 53 1436 279 1436 463;M 1446 463 C 1446 646 1187 863 1013 920 C 839 977 540 924 433 776 C 326 628 278 263 385 115 C 492 -33 833 -33 1007 23 C 1181 79 1446 280 1446 463"></animate>
</path><path d="M 1415 463 C 1415 617 1119 750 973 798 C 827 846 515 906 425 782 C 335 658 368 292 458 168 C 548 44 826 83 972 130 C 1118 177 1415 309 1415 463" fill="url(#lg-0.7868952325466338)" opacity="0.4">
  <animate attributeName="d" dur="10s" repeatCount="indefinite" keyTimes="0;0.3333333333333333;0.6666666666666666;1" calcmod="spline" keySplines="0.3 0.1 0.7 0.9;0.3 0.1 0.7 0.9;0.3 0.1 0.7 0.9" begin="-4s" values="M 1415 463 C 1415 617 1119 750 973 798 C 827 846 515 906 425 782 C 335 658 368 292 458 168 C 548 44 826 83 972 130 C 1118 177 1415 309 1415 463;M 1569 463 C 1569 648 1167 798 991 855 C 815 912 488 965 379 815 C 270 665 312 291 421 141 C 530 -9 820 0 996 57 C 1172 114 1569 278 1569 463;M 1443 463 C 1443 640 1178 853 1009 908 C 840 963 469 968 365 825 C 261 682 282 259 386 116 C 490 -27 815 40 984 95 C 1153 150 1443 286 1443 463;M 1415 463 C 1415 617 1119 750 973 798 C 827 846 515 906 425 782 C 335 658 368 292 458 168 C 548 44 826 83 972 130 C 1118 177 1415 309 1415 463"></animate>
</path><path d="M 1399 463 C 1399 623 1161 860 1009 909 C 857 958 481 939 387 810 C 293 681 343 282 437 153 C 531 24 842 14 994 63 C 1146 112 1399 303 1399 463" fill="url(#lg-0.7868952325466338)" opacity="0.4">
  <animate attributeName="d" dur="10s" repeatCount="indefinite" keyTimes="0;0.3333333333333333;0.6666666666666666;1" calcmod="spline" keySplines="0.3 0.1 0.7 0.9;0.3 0.1 0.7 0.9;0.3 0.1 0.7 0.9" begin="-4s" values="M 1399 463 C 1399 623 1161 860 1009 909 C 857 958 481 939 387 810 C 293 681 343 282 437 153 C 531 24 842 14 994 63 C 1146 112 1399 303 1399 463;M 1419 463 C 1419 633 1182 889 1020 942 C 858 995 475 956 375 818 C 275 680 295 260 395 122 C 495 -16 828 22 990 74 C 1152 126 1419 293 1419 463;M 1520 463 C 1520 628 1163 849 1006 900 C 849 951 514 922 417 788 C 320 654 382 317 479 183 C 576 49 842 -3 999 48 C 1156 99 1520 298 1520 463;M 1399 463 C 1399 623 1161 860 1009 909 C 857 958 481 939 387 810 C 293 681 343 282 437 153 C 531 24 842 14 994 63 C 1146 112 1399 303 1399 463"></animate>
</path><path d="M 1577 463 C 1577 644 1161 791 989 847 C 817 903 550 914 444 768 C 338 622 311 284 417 138 C 523 -8 824 1 996 57 C 1168 113 1577 282 1577 463" fill="url(#lg-0.7868952325466338)" opacity="0.4">
  <animate attributeName="d" dur="10s" repeatCount="indefinite" keyTimes="0;0.3333333333333333;0.6666666666666666;1" calcmod="spline" keySplines="0.3 0.1 0.7 0.9;0.3 0.1 0.7 0.9;0.3 0.1 0.7 0.9" begin="-4s" values="M 1577 463 C 1577 644 1161 791 989 847 C 817 903 550 914 444 768 C 338 622 311 284 417 138 C 523 -8 824 1 996 57 C 1168 113 1577 282 1577 463;M 1445 463 C 1445 645 1171 818 998 874 C 825 930 507 947 400 800 C 293 653 295 275 402 128 C 509 -19 839 -49 1012 7 C 1185 63 1445 281 1445 463;M 1537 463 C 1537 638 1179 863 1012 917 C 845 971 516 932 413 790 C 310 648 323 287 426 145 C 529 3 840 -30 1007 24 C 1174 78 1537 288 1537 463;M 1577 463 C 1577 644 1161 791 989 847 C 817 903 550 914 444 768 C 338 622 311 284 417 138 C 523 -8 824 1 996 57 C 1168 113 1577 282 1577 463"></animate>
</path><path d="M 1533 463 C 1533 640 1197 916 1029 971 C 861 1026 559 903 455 760 C 351 617 352 310 456 167 C 560 24 852 -73 1020 -18 C 1188 37 1533 286 1533 463" fill="url(#lg-0.7868952325466338)" opacity="0.4">
  <animate attributeName="d" dur="10s" repeatCount="indefinite" keyTimes="0;0.3333333333333333;0.6666666666666666;1" calcmod="spline" keySplines="0.3 0.1 0.7 0.9;0.3 0.1 0.7 0.9;0.3 0.1 0.7 0.9" begin="-4s" values="M 1533 463 C 1533 640 1197 916 1029 971 C 861 1026 559 903 455 760 C 351 617 352 310 456 167 C 560 24 852 -73 1020 -18 C 1188 37 1533 286 1533 463;M 1422 463 C 1422 627 1134 761 978 812 C 822 863 572 878 476 745 C 380 612 319 270 415 137 C 511 4 820 67 976 118 C 1132 169 1422 299 1422 463;M 1523 463 C 1523 637 1167 832 1002 886 C 837 940 469 964 367 824 C 265 684 335 293 437 153 C 539 13 830 5 995 59 C 1160 113 1523 289 1523 463;M 1533 463 C 1533 640 1197 916 1029 971 C 861 1026 559 903 455 760 C 351 617 352 310 456 167 C 560 24 852 -73 1020 -18 C 1188 37 1533 286 1533 463"></animate>
</path></g>
</svg>