<?xml version="1.0" encoding="utf-8"?>
<svg xmlns="http://www.w3.org/2000/svg" xmlns:xlink="http://www.w3.org/1999/xlink" style="margin: auto; background: rgb(255, 255, 255); display: block; z-index: 1; position: relative; shape-rendering: auto;" width="1728" height="869" preserveAspectRatio="xMidYMid" viewBox="0 0 1728 869">
<g transform="translate(864,434.5) scale(1,1) translate(-864,-434.5)"><linearGradient id="lg-0.6778489835606056" x1="0" x2="1" y1="0" y2="0">
  <stop stop-color="#ff00ff" offset="0"></stop>
  <stop stop-color="#00ffff" offset="1"></stop>
</linearGradient><path d="M 1722 435 C 1722 533 1600 791 1547 874 C 1494 957 1176 880 1086 921 C 996 962 877 1032 780 1018 C 683 1004 456 1055 382 990 C 308 925 140 749 112 655 C 84 561 78 306 106 212 C 134 118 355 -4 429 -68 C 503 -132 691 -78 788 -92 C 885 -106 1001 -104 1091 -63 C 1181 -22 1423 -42 1476 41 C 1529 124 1722 337 1722 435" fill="url(#lg-0.6778489835606056)" opacity="0.4">
  <animate attributeName="d" dur="10s" repeatCount="indefinite" keyTimes="0;0.3333333333333333;0.6666666666666666;1" calcmod="spline" keySplines="0.3 0.1 0.7 0.9;0.3 0.1 0.7 0.9;0.3 0.1 0.7 0.9" begin="-2.5s" values="M 1722 435 C 1722 533 1600 791 1547 874 C 1494 957 1176 880 1086 921 C 996 962 877 1032 780 1018 C 683 1004 456 1055 382 990 C 308 925 140 749 112 655 C 84 561 78 306 106 212 C 134 118 355 -4 429 -68 C 503 -132 691 -78 788 -92 C 885 -106 1001 -104 1091 -63 C 1181 -22 1423 -42 1476 41 C 1529 124 1722 337 1722 435;M 1535 435 C 1535 515 1362 660 1319 727 C 1276 794 1145 858 1073 891 C 1001 924 878 900 799 889 C 720 878 531 940 471 888 C 411 836 269 692 247 616 C 225 540 199 322 221 246 C 243 170 483 116 543 64 C 603 12 734 92 813 81 C 892 70 985 -22 1057 11 C 1129 44 1349 28 1392 95 C 1435 162 1535 355 1535 435;M 1700 435 C 1700 540 1609 788 1552 877 C 1495 966 1262 1051 1166 1095 C 1070 1139 882 1045 778 1030 C 674 1015 435 1091 355 1022 C 275 953 120 763 90 662 C 60 561 -34 281 -4 180 C 26 79 272 -87 352 -156 C 432 -225 680 -105 784 -120 C 888 -135 1017 -154 1113 -110 C 1209 -66 1443 -63 1500 26 C 1557 115 1700 330 1700 435;M 1722 435 C 1722 533 1600 791 1547 874 C 1494 957 1176 880 1086 921 C 996 962 877 1032 780 1018 C 683 1004 456 1055 382 990 C 308 925 140 749 112 655 C 84 561 78 306 106 212 C 134 118 355 -4 429 -68 C 503 -132 691 -78 788 -92 C 885 -106 1001 -104 1091 -63 C 1181 -22 1423 -42 1476 41 C 1529 124 1722 337 1722 435"></animate>
</path><path d="M 1727 435 C 1727 542 1614 790 1556 880 C 1498 970 1260 1042 1162 1087 C 1064 1132 886 1032 780 1017 C 674 1002 458 1067 377 997 C 296 927 155 755 125 652 C 95 549 78 315 108 212 C 138 109 244 -118 325 -188 C 406 -258 676 -124 782 -139 C 888 -154 1068 -272 1166 -227 C 1264 -182 1473 -84 1531 6 C 1589 96 1727 328 1727 435" fill="url(#lg-0.6778489835606056)" opacity="0.4">
  <animate attributeName="d" dur="10s" repeatCount="indefinite" keyTimes="0;0.3333333333333333;0.6666666666666666;1" calcmod="spline" keySplines="0.3 0.1 0.7 0.9;0.3 0.1 0.7 0.9;0.3 0.1 0.7 0.9" begin="-2.5s" values="M 1727 435 C 1727 542 1614 790 1556 880 C 1498 970 1260 1042 1162 1087 C 1064 1132 886 1032 780 1017 C 674 1002 458 1067 377 997 C 296 927 155 755 125 652 C 95 549 78 315 108 212 C 138 109 244 -118 325 -188 C 406 -258 676 -124 782 -139 C 888 -154 1068 -272 1166 -227 C 1264 -182 1473 -84 1531 6 C 1589 96 1727 328 1727 435;M 1633 435 C 1633 537 1482 710 1427 796 C 1372 882 1181 884 1088 926 C 995 968 881 1031 780 1016 C 679 1001 546 957 469 890 C 392 823 167 746 138 648 C 109 550 91 314 120 216 C 149 118 282 -81 359 -148 C 436 -215 682 -116 783 -131 C 884 -146 1031 -177 1124 -135 C 1217 -93 1356 -3 1411 83 C 1466 169 1633 333 1633 435;M 1358 435 C 1358 506 1373 677 1335 737 C 1297 797 1090 757 1025 787 C 960 817 885 784 815 774 C 745 764 638 805 584 758 C 530 711 416 640 396 572 C 376 504 261 331 281 263 C 301 195 496 120 550 73 C 604 26 746 109 816 99 C 886 89 998 -32 1063 -2 C 1128 28 1272 87 1311 147 C 1350 207 1358 364 1358 435;M 1727 435 C 1727 542 1614 790 1556 880 C 1498 970 1260 1042 1162 1087 C 1064 1132 886 1032 780 1017 C 674 1002 458 1067 377 997 C 296 927 155 755 125 652 C 95 549 78 315 108 212 C 138 109 244 -118 325 -188 C 406 -258 676 -124 782 -139 C 888 -154 1068 -272 1166 -227 C 1264 -182 1473 -84 1531 6 C 1589 96 1727 328 1727 435"></animate>
</path><path d="M 1582 435 C 1582 528 1452 702 1402 780 C 1352 858 1146 828 1061 867 C 976 906 884 948 792 935 C 700 922 545 944 475 883 C 405 822 245 713 219 624 C 193 535 232 346 258 257 C 284 168 378 16 448 -45 C 518 -106 693 -104 785 -117 C 877 -130 1039 -174 1124 -135 C 1209 -96 1440 -46 1490 32 C 1540 110 1582 342 1582 435" fill="url(#lg-0.6778489835606056)" opacity="0.4">
  <animate attributeName="d" dur="10s" repeatCount="indefinite" keyTimes="0;0.3333333333333333;0.6666666666666666;1" calcmod="spline" keySplines="0.3 0.1 0.7 0.9;0.3 0.1 0.7 0.9;0.3 0.1 0.7 0.9" begin="-2.5s" values="M 1582 435 C 1582 528 1452 702 1402 780 C 1352 858 1146 828 1061 867 C 976 906 884 948 792 935 C 700 922 545 944 475 883 C 405 822 245 713 219 624 C 193 535 232 346 258 257 C 284 168 378 16 448 -45 C 518 -106 693 -104 785 -117 C 877 -130 1039 -174 1124 -135 C 1209 -96 1440 -46 1490 32 C 1540 110 1582 342 1582 435;M 1719 435 C 1719 537 1510 728 1455 814 C 1400 900 1183 888 1090 930 C 997 972 880 1039 779 1024 C 678 1009 487 1025 410 958 C 333 891 164 747 135 649 C 106 551 -11 284 18 186 C 47 88 332 -24 409 -91 C 486 -158 698 -6 799 -20 C 900 -34 1054 -228 1147 -185 C 1240 -142 1478 -82 1533 4 C 1588 90 1719 333 1719 435;M 1617 435 C 1617 534 1608 795 1554 878 C 1500 961 1191 912 1101 953 C 1011 994 901 876 803 862 C 705 848 446 1068 371 1003 C 296 938 237 722 209 627 C 181 532 175 335 203 240 C 231 145 340 -19 415 -84 C 490 -149 698 -21 796 -35 C 894 -49 989 -78 1079 -37 C 1169 4 1499 -91 1553 -8 C 1607 75 1617 336 1617 435;M 1582 435 C 1582 528 1452 702 1402 780 C 1352 858 1146 828 1061 867 C 976 906 884 948 792 935 C 700 922 545 944 475 883 C 405 822 245 713 219 624 C 193 535 232 346 258 257 C 284 168 378 16 448 -45 C 518 -106 693 -104 785 -117 C 877 -130 1039 -174 1124 -135 C 1209 -96 1440 -46 1490 32 C 1540 110 1582 342 1582 435"></animate>
</path><path d="M 1531 435 C 1531 515 1411 690 1368 758 C 1325 826 1164 899 1091 932 C 1018 965 880 889 800 877 C 720 865 542 930 481 877 C 420 824 370 663 347 586 C 324 509 274 345 297 268 C 320 191 443 72 504 19 C 565 -34 715 -37 795 -48 C 875 -59 990 -35 1063 -2 C 1136 31 1325 43 1368 111 C 1411 179 1531 355 1531 435" fill="url(#lg-0.6778489835606056)" opacity="0.4">
  <animate attributeName="d" dur="10s" repeatCount="indefinite" keyTimes="0;0.3333333333333333;0.6666666666666666;1" calcmod="spline" keySplines="0.3 0.1 0.7 0.9;0.3 0.1 0.7 0.9;0.3 0.1 0.7 0.9" begin="-2.5s" values="M 1531 435 C 1531 515 1411 690 1368 758 C 1325 826 1164 899 1091 932 C 1018 965 880 889 800 877 C 720 865 542 930 481 877 C 420 824 370 663 347 586 C 324 509 274 345 297 268 C 320 191 443 72 504 19 C 565 -34 715 -37 795 -48 C 875 -59 990 -35 1063 -2 C 1136 31 1325 43 1368 111 C 1411 179 1531 355 1531 435;M 1580 435 C 1580 527 1444 698 1394 775 C 1344 852 1200 948 1116 986 C 1032 1024 889 908 798 895 C 707 882 532 957 463 897 C 394 837 202 724 176 636 C 150 548 83 301 109 213 C 135 125 389 27 459 -33 C 529 -93 701 -56 792 -69 C 883 -82 986 -54 1070 -16 C 1154 22 1363 5 1413 82 C 1463 159 1580 343 1580 435;M 1486 435 C 1486 516 1368 662 1324 730 C 1280 798 1155 875 1081 909 C 1007 943 877 915 797 904 C 717 893 530 943 469 890 C 408 837 289 688 266 610 C 243 532 270 345 293 267 C 316 189 433 60 494 7 C 555 -46 725 37 805 25 C 885 13 997 -54 1071 -20 C 1145 14 1356 22 1400 90 C 1444 158 1486 354 1486 435;M 1531 435 C 1531 515 1411 690 1368 758 C 1325 826 1164 899 1091 932 C 1018 965 880 889 800 877 C 720 865 542 930 481 877 C 420 824 370 663 347 586 C 324 509 274 345 297 268 C 320 191 443 72 504 19 C 565 -34 715 -37 795 -48 C 875 -59 990 -35 1063 -2 C 1136 31 1325 43 1368 111 C 1411 179 1531 355 1531 435"></animate>
</path><path d="M 1534 435 C 1534 521 1404 680 1357 752 C 1310 824 1148 849 1070 885 C 992 921 878 937 793 925 C 708 913 558 918 493 862 C 428 806 177 726 153 643 C 129 560 272 351 296 268 C 320 185 401 31 466 -25 C 531 -81 718 23 803 11 C 888 -1 1022 -117 1100 -81 C 1178 -45 1392 -7 1439 65 C 1486 137 1534 349 1534 435" fill="url(#lg-0.6778489835606056)" opacity="0.4">
  <animate attributeName="d" dur="10s" repeatCount="indefinite" keyTimes="0;0.3333333333333333;0.6666666666666666;1" calcmod="spline" keySplines="0.3 0.1 0.7 0.9;0.3 0.1 0.7 0.9;0.3 0.1 0.7 0.9" begin="-2.5s" values="M 1534 435 C 1534 521 1404 680 1357 752 C 1310 824 1148 849 1070 885 C 992 921 878 937 793 925 C 708 913 558 918 493 862 C 428 806 177 726 153 643 C 129 560 272 351 296 268 C 320 185 401 31 466 -25 C 531 -81 718 23 803 11 C 888 -1 1022 -117 1100 -81 C 1178 -45 1392 -7 1439 65 C 1486 137 1534 349 1534 435;M 1498 435 C 1498 520 1501 743 1455 814 C 1409 885 1179 920 1102 955 C 1025 990 881 911 797 899 C 713 887 590 881 526 825 C 462 769 225 711 201 629 C 177 547 258 346 282 264 C 306 182 428 61 492 5 C 556 -51 711 -33 795 -45 C 879 -57 987 -38 1064 -3 C 1141 32 1336 30 1382 102 C 1428 174 1498 350 1498 435;M 1541 435 C 1541 527 1420 682 1370 760 C 1320 838 1201 951 1117 989 C 1033 1027 895 867 804 854 C 713 841 564 922 494 862 C 424 802 200 726 174 637 C 148 548 91 304 117 215 C 143 126 410 51 480 -9 C 550 -69 703 -41 794 -54 C 885 -67 976 -33 1060 5 C 1144 43 1427 -37 1477 41 C 1527 119 1541 343 1541 435;M 1534 435 C 1534 521 1404 680 1357 752 C 1310 824 1148 849 1070 885 C 992 921 878 937 793 925 C 708 913 558 918 493 862 C 428 806 177 726 153 643 C 129 560 272 351 296 268 C 320 185 401 31 466 -25 C 531 -81 718 23 803 11 C 888 -1 1022 -117 1100 -81 C 1178 -45 1392 -7 1439 65 C 1486 137 1534 349 1534 435"></animate>
</path><path d="M 1553 435 C 1553 530 1581 782 1529 862 C 1477 942 1187 912 1100 952 C 1013 992 880 993 786 979 C 692 965 514 984 442 922 C 370 860 215 725 188 633 C 161 541 201 340 228 248 C 255 156 406 51 478 -11 C 550 -73 700 -35 794 -49 C 888 -63 1003 -101 1090 -61 C 1177 -21 1460 -62 1512 18 C 1564 98 1553 340 1553 435" fill="url(#lg-0.6778489835606056)" opacity="0.4">
  <animate attributeName="d" dur="10s" repeatCount="indefinite" keyTimes="0;0.3333333333333333;0.6666666666666666;1" calcmod="spline" keySplines="0.3 0.1 0.7 0.9;0.3 0.1 0.7 0.9;0.3 0.1 0.7 0.9" begin="-2.5s" values="M 1553 435 C 1553 530 1581 782 1529 862 C 1477 942 1187 912 1100 952 C 1013 992 880 993 786 979 C 692 965 514 984 442 922 C 370 860 215 725 188 633 C 161 541 201 340 228 248 C 255 156 406 51 478 -11 C 550 -73 700 -35 794 -49 C 888 -63 1003 -101 1090 -61 C 1177 -21 1460 -62 1512 18 C 1564 98 1553 340 1553 435;M 1584 435 C 1584 521 1421 691 1375 763 C 1329 835 1160 876 1082 912 C 1004 948 895 824 810 812 C 725 800 510 974 445 918 C 380 862 180 724 156 642 C 132 560 153 315 177 233 C 201 151 374 0 439 -56 C 504 -112 726 78 811 66 C 896 54 1032 -140 1110 -104 C 1188 -68 1391 -6 1437 66 C 1483 138 1584 349 1584 435;M 1638 435 C 1638 526 1500 736 1451 812 C 1402 888 1153 849 1070 887 C 987 925 895 860 805 847 C 715 834 563 920 494 861 C 425 802 269 704 243 617 C 217 530 195 333 220 246 C 245 159 426 68 495 9 C 564 -50 702 -52 792 -65 C 882 -78 1010 -106 1093 -68 C 1176 -30 1400 -17 1449 59 C 1498 135 1638 344 1638 435;M 1553 435 C 1553 530 1581 782 1529 862 C 1477 942 1187 912 1100 952 C 1013 992 880 993 786 979 C 692 965 514 984 442 922 C 370 860 215 725 188 633 C 161 541 201 340 228 248 C 255 156 406 51 478 -11 C 550 -73 700 -35 794 -49 C 888 -63 1003 -101 1090 -61 C 1177 -21 1460 -62 1512 18 C 1564 98 1553 340 1553 435"></animate>
</path><path d="M 1772 435 C 1772 540 1592 777 1535 865 C 1478 953 1224 972 1129 1015 C 1034 1058 885 1026 781 1011 C 677 996 432 1093 353 1024 C 274 955 152 752 123 652 C 94 552 103 320 132 220 C 161 120 349 0 428 -69 C 507 -138 696 2 800 -13 C 904 -28 1051 -226 1146 -182 C 1241 -138 1404 -37 1461 51 C 1518 139 1772 330 1772 435" fill="url(#lg-0.6778489835606056)" opacity="0.4">
  <animate attributeName="d" dur="10s" repeatCount="indefinite" keyTimes="0;0.3333333333333333;0.6666666666666666;1" calcmod="spline" keySplines="0.3 0.1 0.7 0.9;0.3 0.1 0.7 0.9;0.3 0.1 0.7 0.9" begin="-2.5s" values="M 1772 435 C 1772 540 1592 777 1535 865 C 1478 953 1224 972 1129 1015 C 1034 1058 885 1026 781 1011 C 677 996 432 1093 353 1024 C 274 955 152 752 123 652 C 94 552 103 320 132 220 C 161 120 349 0 428 -69 C 507 -138 696 2 800 -13 C 904 -28 1051 -226 1146 -182 C 1241 -138 1404 -37 1461 51 C 1518 139 1772 330 1772 435;M 1440 435 C 1440 508 1403 695 1364 756 C 1325 817 1108 794 1042 824 C 976 854 890 768 818 758 C 746 748 579 875 524 827 C 469 779 396 648 375 578 C 354 508 304 346 325 276 C 346 206 476 98 531 50 C 586 2 744 109 816 99 C 888 89 988 -12 1054 18 C 1120 48 1305 65 1344 126 C 1383 187 1440 362 1440 435;M 1574 435 C 1574 519 1364 655 1318 726 C 1272 797 1168 897 1091 932 C 1014 967 895 811 812 799 C 729 787 533 945 469 890 C 405 835 236 707 212 626 C 188 545 203 329 227 248 C 251 167 451 87 515 32 C 579 -23 712 -35 795 -47 C 878 -59 973 -7 1050 28 C 1127 63 1345 26 1390 97 C 1435 168 1574 351 1574 435;M 1772 435 C 1772 540 1592 777 1535 865 C 1478 953 1224 972 1129 1015 C 1034 1058 885 1026 781 1011 C 677 996 432 1093 353 1024 C 274 955 152 752 123 652 C 94 552 103 320 132 220 C 161 120 349 0 428 -69 C 507 -138 696 2 800 -13 C 904 -28 1051 -226 1146 -182 C 1241 -138 1404 -37 1461 51 C 1518 139 1772 330 1772 435"></animate>
</path><path d="M 1654 435 C 1654 528 1564 774 1514 852 C 1464 930 1180 901 1095 940 C 1010 979 879 982 787 969 C 695 956 555 933 485 872 C 415 811 261 708 235 619 C 209 530 209 339 235 250 C 261 161 409 51 479 -10 C 549 -71 714 43 806 30 C 898 17 1041 -177 1126 -138 C 1211 -99 1442 -47 1492 31 C 1542 109 1654 342 1654 435" fill="url(#lg-0.6778489835606056)" opacity="0.4">
  <animate attributeName="d" dur="10s" repeatCount="indefinite" keyTimes="0;0.3333333333333333;0.6666666666666666;1" calcmod="spline" keySplines="0.3 0.1 0.7 0.9;0.3 0.1 0.7 0.9;0.3 0.1 0.7 0.9" begin="-2.5s" values="M 1654 435 C 1654 528 1564 774 1514 852 C 1464 930 1180 901 1095 940 C 1010 979 879 982 787 969 C 695 956 555 933 485 872 C 415 811 261 708 235 619 C 209 530 209 339 235 250 C 261 161 409 51 479 -10 C 549 -71 714 43 806 30 C 898 17 1041 -177 1126 -138 C 1211 -99 1442 -47 1492 31 C 1542 109 1654 342 1654 435;M 1699 435 C 1699 541 1537 742 1480 831 C 1423 920 1214 944 1117 988 C 1020 1032 902 917 797 902 C 692 887 459 1064 379 994 C 299 924 18 794 -12 692 C -42 590 -37 281 -7 179 C 23 77 375 32 455 -38 C 535 -108 679 -103 784 -118 C 889 -133 1008 -137 1105 -93 C 1202 -49 1473 -83 1530 6 C 1587 95 1699 329 1699 435;M 1455 435 C 1455 513 1339 648 1297 713 C 1255 778 1105 775 1034 807 C 963 839 890 798 813 787 C 736 776 580 881 521 830 C 462 779 280 687 258 612 C 236 537 210 324 232 249 C 254 174 490 122 549 71 C 608 20 719 -24 796 -35 C 873 -46 998 -46 1069 -14 C 1140 18 1250 95 1292 160 C 1334 225 1455 357 1455 435;M 1654 435 C 1654 528 1564 774 1514 852 C 1464 930 1180 901 1095 940 C 1010 979 879 982 787 969 C 695 956 555 933 485 872 C 415 811 261 708 235 619 C 209 530 209 339 235 250 C 261 161 409 51 479 -10 C 549 -71 714 43 806 30 C 898 17 1041 -177 1126 -138 C 1211 -99 1442 -47 1492 31 C 1542 109 1654 342 1654 435"></animate>
</path></g>
</svg>