<?xml version="1.0" encoding="utf-8"?>
<svg xmlns="http://www.w3.org/2000/svg" xmlns:xlink="http://www.w3.org/1999/xlink" style="margin: auto; background: rgb(1, 44, 50); display: block; z-index: 1; position: relative; shape-rendering: auto;" width="1728" height="869" preserveAspectRatio="xMidYMid" viewBox="0 0 1728 869">
<g transform="translate(864,434.5) scale(1,1) translate(-864,-434.5)"><path d="M-100 520.78C-68.78 523.13 -68.68 518.86 -37.81 518.86S-6.12 510.44 24.39 510.44S56.81 515.38 86.58 515.38S119.26 506.55 148.77 506.55S180.67 511.5 210.97 511.5S242.26 514.84 273.16 514.84S305.67 524.16 335.35 524.16S367.3 521.22 397.55 521.22S430.6 525.48 459.74 525.48S491.14 505.33 521.94 505.33S554.54 520.64 584.13 520.64S616.97 504.82 646.32 504.82S679.58 524.12 708.52 524.12S740.26 507.82 770.71 507.82S803.63 519.35 832.9 519.35S865.98 519.93 895.1 519.93S927.16 517.84 957.29 517.84S989.94 516.23 1019.48 516.23S1051.14 511.88 1081.68 511.88S1114.78 518.86 1143.87 518.86S1176.26 521.11 1206.06 521.11S1238.71 511.34 1268.26 511.34S1301.14 519.72 1330.45 519.72S1363.7 518.01 1392.65 518.01S1424.35 523.88 1454.84 523.88S1486.9 523.81 1517.03 523.81S1549.93 522.35 1579.23 522.35S1610.43 512.32 1641.42 512.32S1674.68 521.74 1703.61 521.74S1735.79 524.8 1765.81 524.8S1797.07 523.42 1828 523.42S1859.8 518.44 1890.19 518.44L1828 869 L-100 869 Z" fill="#0f3135" stroke-width="0">
  <animate attributeName="d" dur="25s" repeatCount="indefinite" values="M-100 520.78C-68.78 523.13 -68.68 518.86 -37.81 518.86S-6.12 510.44 24.39 510.44S56.81 515.38 86.58 515.38S119.26 506.55 148.77 506.55S180.67 511.5 210.97 511.5S242.26 514.84 273.16 514.84S305.67 524.16 335.35 524.16S367.3 521.22 397.55 521.22S430.6 525.48 459.74 525.48S491.14 505.33 521.94 505.33S554.54 520.64 584.13 520.64S616.97 504.82 646.32 504.82S679.58 524.12 708.52 524.12S740.26 507.82 770.71 507.82S803.63 519.35 832.9 519.35S865.98 519.93 895.1 519.93S927.16 517.84 957.29 517.84S989.94 516.23 1019.48 516.23S1051.14 511.88 1081.68 511.88S1114.78 518.86 1143.87 518.86S1176.26 521.11 1206.06 521.11S1238.71 511.34 1268.26 511.34S1301.14 519.72 1330.45 519.72S1363.7 518.01 1392.65 518.01S1424.35 523.88 1454.84 523.88S1486.9 523.81 1517.03 523.81S1549.93 522.35 1579.23 522.35S1610.43 512.32 1641.42 512.32S1674.68 521.74 1703.61 521.74S1735.79 524.8 1765.81 524.8S1797.07 523.42 1828 523.42S1859.8 518.44 1890.19 518.44L1828 869 L-100 869 Z;M-100 522.53C-68.87 515.69 -68.11 515.34 -37.81 515.34S-6.29 518.39 24.39 518.39S57.13 524.22 86.58 524.22S119.37 516.05 148.77 516.05S180.16 523.6 210.97 523.6S243.61 507.61 273.16 507.61S304.69 509.75 335.35 509.75S366.71 523.14 397.55 523.14S428.66 513.78 459.74 513.78S491.89 511.18 521.94 511.18S553.84 505.79 584.13 505.79S616.98 515.48 646.32 515.48S679.57 506.09 708.52 506.09S741.49 519.99 770.71 519.99S802.14 518.9 832.9 518.9S864.86 522.28 895.1 522.28S927.98 513.35 957.29 513.35S990.46 514.19 1019.48 514.19S1051.56 515.37 1081.68 515.37S1114.89 509.26 1143.87 509.26S1175.92 504.04 1206.06 504.04S1239.29 518.99 1268.26 518.99S1299.79 507.49 1330.45 507.49S1362.85 515.69 1392.65 515.69S1423.9 513.73 1454.84 513.73S1487.85 507.06 1517.03 507.06S1550.3 508.56 1579.23 508.56S1610.81 523.39 1641.42 523.39S1672.95 523.33 1703.61 523.33S1736.35 521.94 1765.81 521.94S1798.07 525.08 1828 525.08S1860.73 514.05 1890.19 514.05L1828 869 L-100 869 Z;M-100 520.78C-68.78 523.13 -68.68 518.86 -37.81 518.86S-6.12 510.44 24.39 510.44S56.81 515.38 86.58 515.38S119.26 506.55 148.77 506.55S180.67 511.5 210.97 511.5S242.26 514.84 273.16 514.84S305.67 524.16 335.35 524.16S367.3 521.22 397.55 521.22S430.6 525.48 459.74 525.48S491.14 505.33 521.94 505.33S554.54 520.64 584.13 520.64S616.97 504.82 646.32 504.82S679.58 524.12 708.52 524.12S740.26 507.82 770.71 507.82S803.63 519.35 832.9 519.35S865.98 519.93 895.1 519.93S927.16 517.84 957.29 517.84S989.94 516.23 1019.48 516.23S1051.14 511.88 1081.68 511.88S1114.78 518.86 1143.87 518.86S1176.26 521.11 1206.06 521.11S1238.71 511.34 1268.26 511.34S1301.14 519.72 1330.45 519.72S1363.7 518.01 1392.65 518.01S1424.35 523.88 1454.84 523.88S1486.9 523.81 1517.03 523.81S1549.93 522.35 1579.23 522.35S1610.43 512.32 1641.42 512.32S1674.68 521.74 1703.61 521.74S1735.79 524.8 1765.81 524.8S1797.07 523.42 1828 523.42S1859.8 518.44 1890.19 518.44L1828 869 L-100 869 Z"></animate>
  <animateTransform attributeName="transform" type="translate" dur="25s" begin="0s" repeatCount="indefinite" values="0;10;0" calcMode="spline" keySplines="0.3 0 0.7 1;0.3 0 0.7 1"></animateTransform>
</path><path d="M-100 544.31C-68.02 527.16 -67.5 546.71 -36.16 546.71S-3 546.86 27.68 546.86S59.68 536.53 91.52 536.53S123.93 530.08 155.36 530.08S187.9 534.78 219.21 534.78S252.34 534.54 283.05 534.54S316 545.53 346.89 545.53S380.6 533.92 410.73 533.92S443.88 541.9 474.57 541.9S508.29 532.92 538.41 532.92S571.38 537.76 602.25 537.76S634.39 533.97 666.09 533.97S699.44 536.94 729.93 536.94S764.01 533.49 793.77 533.49S827.02 551.53 857.62 551.53S889.67 533.26 921.46 533.26S953.59 531.84 985.3 531.84S1018.71 533.56 1049.14 533.56S1082.01 551.25 1112.98 551.25S1146.08 536.29 1176.82 536.29S1209.48 536.85 1240.66 536.85S1274.5 535.5 1304.5 535.5S1338.57 526.07 1368.34 526.07S1400.48 533.63 1432.19 533.63S1466.12 534.21 1496.03 534.21S1528.66 543.4 1559.87 543.4S1593.74 546.21 1623.71 546.21S1657.08 530.81 1687.55 530.81S1720.52 540.31 1751.39 540.31S1783.44 547.04 1815.23 547.04S1847.37 534.18 1879.07 534.18L1828 869 L-100 869 Z" fill="#254346" stroke-width="0">
  <animate attributeName="d" dur="22.5s" repeatCount="indefinite" values="M-100 544.31C-68.02 527.16 -67.5 546.71 -36.16 546.71S-3 546.86 27.68 546.86S59.68 536.53 91.52 536.53S123.93 530.08 155.36 530.08S187.9 534.78 219.21 534.78S252.34 534.54 283.05 534.54S316 545.53 346.89 545.53S380.6 533.92 410.73 533.92S443.88 541.9 474.57 541.9S508.29 532.92 538.41 532.92S571.38 537.76 602.25 537.76S634.39 533.97 666.09 533.97S699.44 536.94 729.93 536.94S764.01 533.49 793.77 533.49S827.02 551.53 857.62 551.53S889.67 533.26 921.46 533.26S953.59 531.84 985.3 531.84S1018.71 533.56 1049.14 533.56S1082.01 551.25 1112.98 551.25S1146.08 536.29 1176.82 536.29S1209.48 536.85 1240.66 536.85S1274.5 535.5 1304.5 535.5S1338.57 526.07 1368.34 526.07S1400.48 533.63 1432.19 533.63S1466.12 534.21 1496.03 534.21S1528.66 543.4 1559.87 543.4S1593.74 546.21 1623.71 546.21S1657.08 530.81 1687.55 530.81S1720.52 540.31 1751.39 540.31S1783.44 547.04 1815.23 547.04S1847.37 534.18 1879.07 534.18L1828 869 L-100 869 Z;M-100 529.78C-66.86 543.94 -66.8 535.21 -36.16 535.21S-4.15 540.71 27.68 540.71S60.05 529.88 91.52 529.88S124.58 533.51 155.36 533.51S188.99 533.87 219.21 533.87S252.92 541.27 283.05 541.27S315.3 542.77 346.89 542.77S380.64 541.04 410.73 541.04S443.75 538.04 474.57 538.04S506.6 533.81 538.41 533.81S571.17 542.91 602.25 542.91S635.72 551.12 666.09 551.12S699.55 539.86 729.93 539.86S762.93 540.33 793.77 540.33S827.05 541.27 857.62 541.27S889.63 535.24 921.46 535.24S955.32 527.17 985.3 527.17S1018.8 546.56 1049.14 546.56S1082.69 534.76 1112.98 534.76S1145.1 542.95 1176.82 542.95S1209.94 539.25 1240.66 539.25S1273.48 541.81 1304.5 541.81S1337.22 541.65 1368.34 541.65S1401.66 531.36 1432.19 531.36S1465.69 550.95 1496.03 550.95S1528.73 546.16 1559.87 546.16S1593.39 537.62 1623.71 537.62S1657.54 539.06 1687.55 539.06S1720.1 539.43 1751.39 539.43S1783.81 536.75 1815.23 536.75S1847.57 550.44 1879.07 550.44L1828 869 L-100 869 Z;M-100 544.31C-68.02 527.16 -67.5 546.71 -36.16 546.71S-3 546.86 27.68 546.86S59.68 536.53 91.52 536.53S123.93 530.08 155.36 530.08S187.9 534.78 219.21 534.78S252.34 534.54 283.05 534.54S316 545.53 346.89 545.53S380.6 533.92 410.73 533.92S443.88 541.9 474.57 541.9S508.29 532.92 538.41 532.92S571.38 537.76 602.25 537.76S634.39 533.97 666.09 533.97S699.44 536.94 729.93 536.94S764.01 533.49 793.77 533.49S827.02 551.53 857.62 551.53S889.67 533.26 921.46 533.26S953.59 531.84 985.3 531.84S1018.71 533.56 1049.14 533.56S1082.01 551.25 1112.98 551.25S1146.08 536.29 1176.82 536.29S1209.48 536.85 1240.66 536.85S1274.5 535.5 1304.5 535.5S1338.57 526.07 1368.34 526.07S1400.48 533.63 1432.19 533.63S1466.12 534.21 1496.03 534.21S1528.66 543.4 1559.87 543.4S1593.74 546.21 1623.71 546.21S1657.08 530.81 1687.55 530.81S1720.52 540.31 1751.39 540.31S1783.44 547.04 1815.23 547.04S1847.37 534.18 1879.07 534.18L1828 869 L-100 869 Z"></animate>
  <animateTransform attributeName="transform" type="translate" dur="22.5s" begin="-2.25s" repeatCount="indefinite" values="0;10;0" calcMode="spline" keySplines="0.3 0 0.7 1;0.3 0 0.7 1"></animateTransform>
</path><path d="M-100 556C-65.58 551.73 -65.84 577.49 -34.42 577.49S-0.22 550.26 31.16 550.26S65.71 565.82 96.73 565.82S130.1 551.91 162.31 551.91S196.57 556.32 227.89 556.32S261.74 564.94 293.47 564.94S327.2 569.91 359.05 569.91S392.21 558.04 424.63 558.04S458.1 562.14 490.2 562.14S524.22 566.11 555.78 566.11S589.72 570.26 621.36 570.26S656.03 566.42 686.94 566.42S720.64 565.72 752.52 565.72S787.04 561.36 818.1 561.36S852.54 571.23 883.67 571.23S918.61 560.03 949.25 560.03S982.73 558.8 1014.83 558.8S1048.08 563.65 1080.41 563.65S1113.83 560.67 1145.99 560.67S1179.63 561.64 1211.56 561.64S1245.93 558.37 1277.14 558.37S1311.37 552.92 1342.72 552.92S1376.08 561.83 1408.3 561.83S1442.38 550.51 1473.88 550.51S1508.23 576.68 1539.46 576.68S1573.96 562.73 1605.03 562.73S1638.37 571.29 1670.61 571.29S1704.66 564.23 1736.19 564.23S1770.3 571.04 1801.77 571.04S1836.31 563.71 1867.35 563.71L1828 869 L-100 869 Z" fill="#3b5658" stroke-width="0">
  <animate attributeName="d" dur="20s" repeatCount="indefinite" values="M-100 556C-65.58 551.73 -65.84 577.49 -34.42 577.49S-0.22 550.26 31.16 550.26S65.71 565.82 96.73 565.82S130.1 551.91 162.31 551.91S196.57 556.32 227.89 556.32S261.74 564.94 293.47 564.94S327.2 569.91 359.05 569.91S392.21 558.04 424.63 558.04S458.1 562.14 490.2 562.14S524.22 566.11 555.78 566.11S589.72 570.26 621.36 570.26S656.03 566.42 686.94 566.42S720.64 565.72 752.52 565.72S787.04 561.36 818.1 561.36S852.54 571.23 883.67 571.23S918.61 560.03 949.25 560.03S982.73 558.8 1014.83 558.8S1048.08 563.65 1080.41 563.65S1113.83 560.67 1145.99 560.67S1179.63 561.64 1211.56 561.64S1245.93 558.37 1277.14 558.37S1311.37 552.92 1342.72 552.92S1376.08 561.83 1408.3 561.83S1442.38 550.51 1473.88 550.51S1508.23 576.68 1539.46 576.68S1573.96 562.73 1605.03 562.73S1638.37 571.29 1670.61 571.29S1704.66 564.23 1736.19 564.23S1770.3 571.04 1801.77 571.04S1836.31 563.71 1867.35 563.71L1828 869 L-100 869 Z;M-100 558.09C-66.29 572.46 -66.05 571.71 -34.42 571.71S-0.58 565.72 31.16 565.72S64.42 559.03 96.73 559.03S130.29 561 162.31 561S195.33 577.77 227.89 577.77S260.98 559.18 293.47 559.18S327.56 563.58 359.05 563.58S392.32 568.2 424.63 568.2S458.48 567.92 490.2 567.92S524.75 566.96 555.78 566.96S588.69 557.77 621.36 557.77S654.54 562.78 686.94 562.78S720.72 572.01 752.52 572.01S785.93 564.14 818.1 564.14S851.39 576.38 883.67 576.38S916.76 559.7 949.25 559.7S982.85 558.08 1014.83 558.08S1048.77 547.74 1080.41 547.74S1113.97 569.7 1145.99 569.7S1180.77 548.72 1211.56 548.72S1245.95 568.72 1277.14 568.72S1310.84 558.87 1342.72 558.87S1377.02 561.11 1408.3 561.11S1441.39 559.54 1473.88 559.54S1507.16 573.53 1539.46 573.53S1572.97 567.81 1605.03 567.81S1638.72 571.99 1670.61 571.99S1704.67 562.56 1736.19 562.56S1769.14 562.18 1801.77 562.18S1835.43 552.32 1867.35 552.32L1828 869 L-100 869 Z;M-100 556C-65.58 551.73 -65.84 577.49 -34.42 577.49S-0.22 550.26 31.16 550.26S65.71 565.82 96.73 565.82S130.1 551.91 162.31 551.91S196.57 556.32 227.89 556.32S261.74 564.94 293.47 564.94S327.2 569.91 359.05 569.91S392.21 558.04 424.63 558.04S458.1 562.14 490.2 562.14S524.22 566.11 555.78 566.11S589.72 570.26 621.36 570.26S656.03 566.42 686.94 566.42S720.64 565.72 752.52 565.72S787.04 561.36 818.1 561.36S852.54 571.23 883.67 571.23S918.61 560.03 949.25 560.03S982.73 558.8 1014.83 558.8S1048.08 563.65 1080.41 563.65S1113.83 560.67 1145.99 560.67S1179.63 561.64 1211.56 561.64S1245.93 558.37 1277.14 558.37S1311.37 552.92 1342.72 552.92S1376.08 561.83 1408.3 561.83S1442.38 550.51 1473.88 550.51S1508.23 576.68 1539.46 576.68S1573.96 562.73 1605.03 562.73S1638.37 571.29 1670.61 571.29S1704.66 564.23 1736.19 564.23S1770.3 571.04 1801.77 571.04S1836.31 563.71 1867.35 563.71L1828 869 L-100 869 Z"></animate>
  <animateTransform attributeName="transform" type="translate" dur="20s" begin="-4s" repeatCount="indefinite" values="0;10;0" calcMode="spline" keySplines="0.3 0 0.7 1;0.3 0 0.7 1"></animateTransform>
</path><path d="M-100 578.4C-64.72 581.34 -65.63 590.8 -32.59 590.8S1.69 578.85 34.83 578.85S69.15 594 102.24 594S137.55 585.39 169.65 585.39S205.36 594.18 237.06 594.18S272.47 569.31 304.48 569.31S340.24 597.41 371.89 597.41S405.63 590.55 439.3 590.55S473.44 589.44 506.71 589.44S541.57 569.99 574.13 569.99S609.57 584.4 641.54 584.4S676.2 583.05 708.95 583.05S743.5 589.31 776.36 589.31S812 576.1 843.78 576.1S878.34 602.42 911.19 602.42S946.64 588.34 978.6 588.34S1013.05 590.64 1046.01 590.64S1081.74 571.42 1113.43 571.42S1147.84 583.15 1180.84 583.15S1215.31 570.34 1248.25 570.34S1282.5 591.4 1315.66 591.4S1350.55 570.21 1383.08 570.21S1418.92 590.05 1450.49 590.05S1485.14 586.42 1517.9 586.42S1552.26 597.11 1585.31 597.11S1619.28 570.54 1652.73 570.54S1686.98 587.87 1720.14 587.87S1753.91 586.86 1787.55 586.86S1821.91 584.03 1854.97 584.03L1828 869 L-100 869 Z" fill="#51696b" stroke-width="0">
  <animate attributeName="d" dur="17.5s" repeatCount="indefinite" values="M-100 578.4C-64.72 581.34 -65.63 590.8 -32.59 590.8S1.69 578.85 34.83 578.85S69.15 594 102.24 594S137.55 585.39 169.65 585.39S205.36 594.18 237.06 594.18S272.47 569.31 304.48 569.31S340.24 597.41 371.89 597.41S405.63 590.55 439.3 590.55S473.44 589.44 506.71 589.44S541.57 569.99 574.13 569.99S609.57 584.4 641.54 584.4S676.2 583.05 708.95 583.05S743.5 589.31 776.36 589.31S812 576.1 843.78 576.1S878.34 602.42 911.19 602.42S946.64 588.34 978.6 588.34S1013.05 590.64 1046.01 590.64S1081.74 571.42 1113.43 571.42S1147.84 583.15 1180.84 583.15S1215.31 570.34 1248.25 570.34S1282.5 591.4 1315.66 591.4S1350.55 570.21 1383.08 570.21S1418.92 590.05 1450.49 590.05S1485.14 586.42 1517.9 586.42S1552.26 597.11 1585.31 597.11S1619.28 570.54 1652.73 570.54S1686.98 587.87 1720.14 587.87S1753.91 586.86 1787.55 586.86S1821.91 584.03 1854.97 584.03L1828 869 L-100 869 Z;M-100 579.22C-64.55 575.63 -65.51 602.9 -32.59 602.9S3.22 597.82 34.83 597.82S69.09 593.02 102.24 593.02S136.45 572.6 169.65 572.6S205.44 590.44 237.06 590.44S271.98 590.21 304.48 590.21S338.25 585.78 371.89 585.78S406.24 580.74 439.3 580.74S474.02 587.64 506.71 587.64S541.41 584.75 574.13 584.75S608.2 602.05 641.54 602.05S676.38 578.22 708.95 578.22S743.91 599.39 776.36 599.39S810.86 603.69 843.78 603.69S878.91 594.25 911.19 594.25S945.71 602.77 978.6 602.77S1013.41 602.45 1046.01 602.45S1081.46 579.31 1113.43 579.31S1148.41 595.57 1180.84 595.57S1215.54 582.27 1248.25 582.27S1282.88 572.4 1315.66 572.4S1350.49 571.47 1383.08 571.47S1418.21 585.54 1450.49 585.54S1484.63 569.79 1517.9 569.79S1553.45 597.27 1585.31 597.27S1619.45 576.11 1652.73 576.11S1686.9 584.46 1720.14 584.46S1755.44 575.22 1787.55 575.22S1822.34 579.33 1854.97 579.33L1828 869 L-100 869 Z;M-100 578.4C-64.72 581.34 -65.63 590.8 -32.59 590.8S1.69 578.85 34.83 578.85S69.15 594 102.24 594S137.55 585.39 169.65 585.39S205.36 594.18 237.06 594.18S272.47 569.31 304.48 569.31S340.24 597.41 371.89 597.41S405.63 590.55 439.3 590.55S473.44 589.44 506.71 589.44S541.57 569.99 574.13 569.99S609.57 584.4 641.54 584.4S676.2 583.05 708.95 583.05S743.5 589.31 776.36 589.31S812 576.1 843.78 576.1S878.34 602.42 911.19 602.42S946.64 588.34 978.6 588.34S1013.05 590.64 1046.01 590.64S1081.74 571.42 1113.43 571.42S1147.84 583.15 1180.84 583.15S1215.31 570.34 1248.25 570.34S1282.5 591.4 1315.66 591.4S1350.55 570.21 1383.08 570.21S1418.92 590.05 1450.49 590.05S1485.14 586.42 1517.9 586.42S1552.26 597.11 1585.31 597.11S1619.28 570.54 1652.73 570.54S1686.98 587.87 1720.14 587.87S1753.91 586.86 1787.55 586.86S1821.91 584.03 1854.97 584.03L1828 869 L-100 869 Z"></animate>
  <animateTransform attributeName="transform" type="translate" dur="17.5s" begin="-5.25s" repeatCount="indefinite" values="0;10;0" calcMode="spline" keySplines="0.3 0 0.7 1;0.3 0 0.7 1"></animateTransform>
</path><path d="M-100 605.16C-64 599.75 -64.29 611.01 -30.65 611.01S5.32 596.7 38.71 596.7S74.36 623.67 108.06 623.67S144.2 596.7 177.41 596.7S212.65 624.62 246.76 624.62S282.98 604.16 316.12 604.16S352.57 620.54 385.47 620.54S420.43 603.93 454.82 603.93S490.51 612.49 524.17 612.49S560.43 600.13 593.53 600.13S628.27 610.57 662.88 610.57S699.08 604.07 732.23 604.07S767.67 627.12 801.58 627.12S836.69 592.7 870.94 592.7S907.11 609.09 940.29 609.09S976.95 609.99 1009.64 609.99S1045.69 617.6 1078.99 617.6S1114.6 600.38 1148.35 600.38S1183.57 611.64 1217.7 611.64S1252.65 605.69 1287.05 605.69S1323.47 610.5 1356.4 610.5S1391.59 593.84 1425.76 593.84S1462.3 619.71 1495.11 619.71S1531.83 608.08 1564.46 608.08S1601.18 622.71 1633.81 622.71S1668.83 604.65 1703.17 604.65S1738.49 629.57 1772.52 629.57S1808.64 606.02 1841.87 606.02L1828 869 L-100 869 Z" fill="#677d7f" stroke-width="0">
  <animate attributeName="d" dur="15s" repeatCount="indefinite" values="M-100 605.16C-64 599.75 -64.29 611.01 -30.65 611.01S5.32 596.7 38.71 596.7S74.36 623.67 108.06 623.67S144.2 596.7 177.41 596.7S212.65 624.62 246.76 624.62S282.98 604.16 316.12 604.16S352.57 620.54 385.47 620.54S420.43 603.93 454.82 603.93S490.51 612.49 524.17 612.49S560.43 600.13 593.53 600.13S628.27 610.57 662.88 610.57S699.08 604.07 732.23 604.07S767.67 627.12 801.58 627.12S836.69 592.7 870.94 592.7S907.11 609.09 940.29 609.09S976.95 609.99 1009.64 609.99S1045.69 617.6 1078.99 617.6S1114.6 600.38 1148.35 600.38S1183.57 611.64 1217.7 611.64S1252.65 605.69 1287.05 605.69S1323.47 610.5 1356.4 610.5S1391.59 593.84 1425.76 593.84S1462.3 619.71 1495.11 619.71S1531.83 608.08 1564.46 608.08S1601.18 622.71 1633.81 622.71S1668.83 604.65 1703.17 604.65S1738.49 629.57 1772.52 629.57S1808.64 606.02 1841.87 606.02L1828 869 L-100 869 Z;M-100 602.9C-64.05 595.43 -65.27 602.59 -30.65 602.59S4.87 594.54 38.71 594.54S75.14 620.07 108.06 620.07S144.7 627.7 177.41 627.7S214.17 621.31 246.76 621.31S282.99 601.13 316.12 601.13S351.45 616.75 385.47 616.75S420.88 607.19 454.82 607.19S490.59 620.56 524.17 620.56S559.8 594.39 593.53 594.39S629.72 627.19 662.88 627.19S699.15 607.39 732.23 607.39S767.49 628.88 801.58 628.88S836.28 601.04 870.94 601.04S905.71 622.09 940.29 622.09S975.09 608.39 1009.64 608.39S1046.3 627.87 1078.99 627.87S1114.86 608.91 1148.35 608.91S1184.29 629.55 1217.7 629.55S1253.71 608.51 1287.05 608.51S1321.97 611.03 1356.4 611.03S1392.92 593.22 1425.76 593.22S1462.52 616.23 1495.11 616.23S1531.63 608.41 1564.46 608.41S1600.29 626.43 1633.81 626.43S1670.65 606.15 1703.17 606.15S1738.03 624.32 1772.52 624.32S1807.5 592.5 1841.87 592.5L1828 869 L-100 869 Z;M-100 605.16C-64 599.75 -64.29 611.01 -30.65 611.01S5.32 596.7 38.71 596.7S74.36 623.67 108.06 623.67S144.2 596.7 177.41 596.7S212.65 624.62 246.76 624.62S282.98 604.16 316.12 604.16S352.57 620.54 385.47 620.54S420.43 603.93 454.82 603.93S490.51 612.49 524.17 612.49S560.43 600.13 593.53 600.13S628.27 610.57 662.88 610.57S699.08 604.07 732.23 604.07S767.67 627.12 801.58 627.12S836.69 592.7 870.94 592.7S907.11 609.09 940.29 609.09S976.95 609.99 1009.64 609.99S1045.69 617.6 1078.99 617.6S1114.6 600.38 1148.35 600.38S1183.57 611.64 1217.7 611.64S1252.65 605.69 1287.05 605.69S1323.47 610.5 1356.4 610.5S1391.59 593.84 1425.76 593.84S1462.3 619.71 1495.11 619.71S1531.83 608.08 1564.46 608.08S1601.18 622.71 1633.81 622.71S1668.83 604.65 1703.17 604.65S1738.49 629.57 1772.52 629.57S1808.64 606.02 1841.87 606.02L1828 869 L-100 869 Z"></animate>
  <animateTransform attributeName="transform" type="translate" dur="15s" begin="-6s" repeatCount="indefinite" values="0;10;0" calcMode="spline" keySplines="0.3 0 0.7 1;0.3 0 0.7 1"></animateTransform>
</path><path d="M-100 620.45C-63.63 631.09 -62.61 635.56 -28.59 635.56S8.75 619.19 42.81 619.19S79.35 649.52 114.22 649.52S150.93 615.94 185.63 615.94S221.49 655.35 257.04 655.35S293.72 614.84 328.44 614.84S365.45 645.31 399.85 645.31S436.52 633.51 471.26 633.51S508.04 653.23 542.67 653.23S579.42 627.19 614.07 627.19S651.25 627.21 685.48 627.21S721.69 619.48 756.89 619.48S794.14 641.06 828.3 641.06S865.3 617.17 899.7 617.17S936.86 650.37 971.11 650.37S1008.42 637.79 1042.52 637.79S1080.1 643.55 1113.93 643.55S1151.51 629.74 1185.33 629.74S1221.54 647.13 1256.74 647.13S1292.74 634.07 1328.15 634.07S1364.59 643.82 1399.56 643.82S1435.77 617.86 1470.96 617.86S1508.37 644.12 1542.37 644.12S1579 627.19 1613.78 627.19S1651.49 652.08 1685.19 652.08S1722.03 616.71 1756.59 616.71S1793.08 655.85 1828 655.85S1865.06 616.53 1899.41 616.53L1828 869 L-100 869 Z" fill="#7e9193" stroke-width="0">
  <animate attributeName="d" dur="12.5s" repeatCount="indefinite" values="M-100 620.45C-63.63 631.09 -62.61 635.56 -28.59 635.56S8.75 619.19 42.81 619.19S79.35 649.52 114.22 649.52S150.93 615.94 185.63 615.94S221.49 655.35 257.04 655.35S293.72 614.84 328.44 614.84S365.45 645.31 399.85 645.31S436.52 633.51 471.26 633.51S508.04 653.23 542.67 653.23S579.42 627.19 614.07 627.19S651.25 627.21 685.48 627.21S721.69 619.48 756.89 619.48S794.14 641.06 828.3 641.06S865.3 617.17 899.7 617.17S936.86 650.37 971.11 650.37S1008.42 637.79 1042.52 637.79S1080.1 643.55 1113.93 643.55S1151.51 629.74 1185.33 629.74S1221.54 647.13 1256.74 647.13S1292.74 634.07 1328.15 634.07S1364.59 643.82 1399.56 643.82S1435.77 617.86 1470.96 617.86S1508.37 644.12 1542.37 644.12S1579 627.19 1613.78 627.19S1651.49 652.08 1685.19 652.08S1722.03 616.71 1756.59 616.71S1793.08 655.85 1828 655.85S1865.06 616.53 1899.41 616.53L1828 869 L-100 869 Z;M-100 623.41C-62.88 616.43 -62.75 635.88 -28.59 635.88S7.74 628.38 42.81 628.38S78.6 636.21 114.22 636.21S151.39 632.98 185.63 632.98S222.97 642.24 257.04 642.24S294.16 613.38 328.44 613.38S365.05 634.76 399.85 634.76S436.59 626.65 471.26 626.65S507.44 655.95 542.67 655.95S579.87 638 614.07 638S651.23 647.24 685.48 647.24S723.14 627.78 756.89 627.78S793.65 645.85 828.3 645.85S864.03 615.43 899.7 615.43S936.47 655.88 971.11 655.88S1008.8 617.44 1042.52 617.44S1078.23 653.68 1113.93 653.68S1150.39 615.03 1185.33 615.03S1221.85 617.79 1256.74 617.79S1294 624.99 1328.15 624.99S1364.44 635.87 1399.56 635.87S1435.26 637.28 1470.96 637.28S1508.25 639.27 1542.37 639.27S1579.83 620.45 1613.78 620.45S1649.58 637.58 1685.19 637.58S1722.69 626.28 1756.59 626.28S1793.63 622.27 1828 622.27S1864.92 626.26 1899.41 626.26L1828 869 L-100 869 Z;M-100 620.45C-63.63 631.09 -62.61 635.56 -28.59 635.56S8.75 619.19 42.81 619.19S79.35 649.52 114.22 649.52S150.93 615.94 185.63 615.94S221.49 655.35 257.04 655.35S293.72 614.84 328.44 614.84S365.45 645.31 399.85 645.31S436.52 633.51 471.26 633.51S508.04 653.23 542.67 653.23S579.42 627.19 614.07 627.19S651.25 627.21 685.48 627.21S721.69 619.48 756.89 619.48S794.14 641.06 828.3 641.06S865.3 617.17 899.7 617.17S936.86 650.37 971.11 650.37S1008.42 637.79 1042.52 637.79S1080.1 643.55 1113.93 643.55S1151.51 629.74 1185.33 629.74S1221.54 647.13 1256.74 647.13S1292.74 634.07 1328.15 634.07S1364.59 643.82 1399.56 643.82S1435.77 617.86 1470.96 617.86S1508.37 644.12 1542.37 644.12S1579 627.19 1613.78 627.19S1651.49 652.08 1685.19 652.08S1722.03 616.71 1756.59 616.71S1793.08 655.85 1828 655.85S1865.06 616.53 1899.41 616.53L1828 869 L-100 869 Z"></animate>
  <animateTransform attributeName="transform" type="translate" dur="12.5s" begin="-6.25s" repeatCount="indefinite" values="0;10;0" calcMode="spline" keySplines="0.3 0 0.7 1;0.3 0 0.7 1"></animateTransform>
</path><path d="M-100 648.83C-62.99 646.02 -61.44 635.85 -26.41 635.85S11.37 648.5 47.18 648.5S84.31 675.17 120.76 675.17S159.42 649.59 194.35 649.59S231.32 675.4 267.94 675.4S305.76 638.1 341.53 638.1S378.61 663.86 415.11 663.86S452.49 646.59 488.7 646.59S525.72 677.98 562.29 677.98S599.43 653.12 635.88 653.12S673.48 665.63 709.47 665.63S746.53 647.94 783.05 647.94S820.23 643.27 856.64 643.27S893.52 649.14 930.23 649.14S967.12 677.3 1003.82 677.3S1042.57 679.51 1077.4 679.51S1115.64 680.18 1150.99 680.18S1188.38 641.74 1224.58 641.74S1263.22 661.91 1298.17 661.91S1335.31 651.11 1371.76 651.11S1409.25 680.14 1445.34 680.14S1483.85 636.55 1518.93 636.55S1557.3 667.48 1592.52 667.48S1630.8 653.09 1666.11 653.09S1704.69 677.59 1739.69 677.59S1777.94 639.64 1813.28 639.64S1850.7 672.87 1886.87 672.87L1828 869 L-100 869 Z" fill="#95a6a7" stroke-width="0">
  <animate attributeName="d" dur="10s" repeatCount="indefinite" values="M-100 648.83C-62.99 646.02 -61.44 635.85 -26.41 635.85S11.37 648.5 47.18 648.5S84.31 675.17 120.76 675.17S159.42 649.59 194.35 649.59S231.32 675.4 267.94 675.4S305.76 638.1 341.53 638.1S378.61 663.86 415.11 663.86S452.49 646.59 488.7 646.59S525.72 677.98 562.29 677.98S599.43 653.12 635.88 653.12S673.48 665.63 709.47 665.63S746.53 647.94 783.05 647.94S820.23 643.27 856.64 643.27S893.52 649.14 930.23 649.14S967.12 677.3 1003.82 677.3S1042.57 679.51 1077.4 679.51S1115.64 680.18 1150.99 680.18S1188.38 641.74 1224.58 641.74S1263.22 661.91 1298.17 661.91S1335.31 651.11 1371.76 651.11S1409.25 680.14 1445.34 680.14S1483.85 636.55 1518.93 636.55S1557.3 667.48 1592.52 667.48S1630.8 653.09 1666.11 653.09S1704.69 677.59 1739.69 677.59S1777.94 639.64 1813.28 639.64S1850.7 672.87 1886.87 672.87L1828 869 L-100 869 Z;M-100 647.14C-62.13 654.72 -61.33 652.7 -26.41 652.7S11 650.91 47.18 650.91S84.43 675.76 120.76 675.76S157.75 651.81 194.35 651.81S233.08 664.8 267.94 664.8S305.56 650.9 341.53 650.9S378.49 671.38 415.11 671.38S453.71 670.93 488.7 670.93S527.45 656.04 562.29 656.04S600.23 654.12 635.88 654.12S674.58 672.88 709.47 672.88S746.8 648.22 783.05 648.22S820.99 680.25 856.64 680.25S895.51 655.27 930.23 655.27S968.79 667.61 1003.82 667.61S1042.02 638.57 1077.4 638.57S1114.24 671.39 1150.99 671.39S1188.34 635.42 1224.58 635.42S1263.03 647.56 1298.17 647.56S1335 645.91 1371.76 645.91S1408.92 674.07 1445.34 674.07S1483.71 637.28 1518.93 637.28S1557.21 677.15 1592.52 677.15S1631.24 645.59 1666.11 645.59S1704.63 674.42 1739.69 674.42S1777.74 654.62 1813.28 654.62S1851.62 680.84 1886.87 680.84L1828 869 L-100 869 Z;M-100 648.83C-62.99 646.02 -61.44 635.85 -26.41 635.85S11.37 648.5 47.18 648.5S84.31 675.17 120.76 675.17S159.42 649.59 194.35 649.59S231.32 675.4 267.94 675.4S305.76 638.1 341.53 638.1S378.61 663.86 415.11 663.86S452.49 646.59 488.7 646.59S525.72 677.98 562.29 677.98S599.43 653.12 635.88 653.12S673.48 665.63 709.47 665.63S746.53 647.94 783.05 647.94S820.23 643.27 856.64 643.27S893.52 649.14 930.23 649.14S967.12 677.3 1003.82 677.3S1042.57 679.51 1077.4 679.51S1115.64 680.18 1150.99 680.18S1188.38 641.74 1224.58 641.74S1263.22 661.91 1298.17 661.91S1335.31 651.11 1371.76 651.11S1409.25 680.14 1445.34 680.14S1483.85 636.55 1518.93 636.55S1557.3 667.48 1592.52 667.48S1630.8 653.09 1666.11 653.09S1704.69 677.59 1739.69 677.59S1777.94 639.64 1813.28 639.64S1850.7 672.87 1886.87 672.87L1828 869 L-100 869 Z"></animate>
  <animateTransform attributeName="transform" type="translate" dur="10s" begin="-6s" repeatCount="indefinite" values="0;10;0" calcMode="spline" keySplines="0.3 0 0.7 1;0.3 0 0.7 1"></animateTransform>
</path><path d="M-100 658.04C-60.01 674.68 -60.44 691.71 -24.09 691.71S14.55 662.27 51.81 662.27S90.95 687.17 127.72 687.17S166.09 658.13 203.62 658.13S243.05 686.6 279.53 686.6S319.16 671.28 355.43 671.28S395.27 656.45 431.34 656.45S470.35 677.06 507.24 677.06S546.53 689.62 583.15 689.62S622.98 665.42 659.06 665.42S697.57 689.42 734.96 689.42S773.16 670.99 810.87 670.99S850.28 695.52 886.77 695.52S926.62 656.25 962.68 656.25S1002.53 701.7 1038.58 701.7S1076.59 674.06 1114.49 674.06S1153.85 687.98 1190.39 687.98S1229.01 672.56 1266.3 672.56S1305.49 702.23 1342.2 702.23S1381.56 669.14 1418.11 669.14S1457.06 661.48 1494.02 661.48S1533.66 695.15 1569.92 695.15S1608.53 695.08 1645.83 695.08S1683.82 662.79 1721.73 662.79S1761.67 688.09 1797.64 688.09S1837.54 674.25 1873.54 674.25L1828 869 L-100 869 Z" fill="#adbcbc" stroke-width="0">
  <animate attributeName="d" dur="7.5s" repeatCount="indefinite" values="M-100 658.04C-60.01 674.68 -60.44 691.71 -24.09 691.71S14.55 662.27 51.81 662.27S90.95 687.17 127.72 687.17S166.09 658.13 203.62 658.13S243.05 686.6 279.53 686.6S319.16 671.28 355.43 671.28S395.27 656.45 431.34 656.45S470.35 677.06 507.24 677.06S546.53 689.62 583.15 689.62S622.98 665.42 659.06 665.42S697.57 689.42 734.96 689.42S773.16 670.99 810.87 670.99S850.28 695.52 886.77 695.52S926.62 656.25 962.68 656.25S1002.53 701.7 1038.58 701.7S1076.59 674.06 1114.49 674.06S1153.85 687.98 1190.39 687.98S1229.01 672.56 1266.3 672.56S1305.49 702.23 1342.2 702.23S1381.56 669.14 1418.11 669.14S1457.06 661.48 1494.02 661.48S1533.66 695.15 1569.92 695.15S1608.53 695.08 1645.83 695.08S1683.82 662.79 1721.73 662.79S1761.67 688.09 1797.64 688.09S1837.54 674.25 1873.54 674.25L1828 869 L-100 869 Z;M-100 677.32C-60.41 672.47 -60.46 689.03 -24.09 689.03S14.41 664.68 51.81 664.68S90.94 691.81 127.72 691.81S166.2 670.91 203.62 670.91S241.91 689.31 279.53 689.31S319.47 670.05 355.43 670.05S394.52 688.63 431.34 688.63S471.45 667.85 507.24 667.85S545.55 693.11 583.15 693.11S622.12 659 659.06 659S698.3 699.5 734.96 699.5S773.89 676.93 810.87 676.93S850.12 692.7 886.77 692.7S925.2 672.48 962.68 672.48S1001.79 705.89 1038.58 705.89S1077.72 664.89 1114.49 664.89S1152.9 699.03 1190.39 699.03S1228.43 703.52 1266.3 703.52S1304.6 687.26 1342.2 687.26S1380.32 662.64 1418.11 662.64S1456.58 696.67 1494.02 696.67S1532.55 676.43 1569.92 676.43S1608.55 661.16 1645.83 661.16S1684.34 660.1 1721.73 660.1S1760.27 691.22 1797.64 691.22S1835.74 656.17 1873.54 656.17L1828 869 L-100 869 Z;M-100 658.04C-60.01 674.68 -60.44 691.71 -24.09 691.71S14.55 662.27 51.81 662.27S90.95 687.17 127.72 687.17S166.09 658.13 203.62 658.13S243.05 686.6 279.53 686.6S319.16 671.28 355.43 671.28S395.27 656.45 431.34 656.45S470.35 677.06 507.24 677.06S546.53 689.62 583.15 689.62S622.98 665.42 659.06 665.42S697.57 689.42 734.96 689.42S773.16 670.99 810.87 670.99S850.28 695.52 886.77 695.52S926.62 656.25 962.68 656.25S1002.53 701.7 1038.58 701.7S1076.59 674.06 1114.49 674.06S1153.85 687.98 1190.39 687.98S1229.01 672.56 1266.3 672.56S1305.49 702.23 1342.2 702.23S1381.56 669.14 1418.11 669.14S1457.06 661.48 1494.02 661.48S1533.66 695.15 1569.92 695.15S1608.53 695.08 1645.83 695.08S1683.82 662.79 1721.73 662.79S1761.67 688.09 1797.64 688.09S1837.54 674.25 1873.54 674.25L1828 869 L-100 869 Z"></animate>
  <animateTransform attributeName="transform" type="translate" dur="7.5s" begin="-5.25s" repeatCount="indefinite" values="0;10;0" calcMode="spline" keySplines="0.3 0 0.7 1;0.3 0 0.7 1"></animateTransform>
</path><path d="M-100 714.48C-60.67 722.51 -59.39 722.59 -21.63 722.59S17.92 687.79 56.75 687.79S97.95 718.36 135.12 718.36S176.07 679.35 213.5 679.35S253.52 726.06 291.87 726.06S333.13 686.91 370.24 686.91S411.48 731.06 448.62 731.06S488.67 688.54 526.99 688.54S568.13 713.19 605.37 713.19S644.76 712.97 683.74 712.97S723.11 717.29 762.11 717.29S803.46 692.12 840.49 692.12S881.21 730.47 918.86 730.47S959.87 684.93 997.24 684.93S1037.02 718.4 1075.61 718.4S1115.59 698.29 1153.98 698.29S1193.25 723.37 1232.36 723.37S1271.6 691.33 1310.73 691.33S1351.67 720.76 1389.11 720.76S1429.1 694 1467.48 694S1508.3 713.2 1545.85 713.2S1586.08 692.76 1624.23 692.76S1664.94 713.17 1702.6 713.17S1742.26 686.4 1780.98 686.4S1821.82 725.7 1859.35 725.7L1828 869 L-100 869 Z" fill="#c6d2d2" stroke-width="0">
  <animate attributeName="d" dur="5s" repeatCount="indefinite" values="M-100 714.48C-60.67 722.51 -59.39 722.59 -21.63 722.59S17.92 687.79 56.75 687.79S97.95 718.36 135.12 718.36S176.07 679.35 213.5 679.35S253.52 726.06 291.87 726.06S333.13 686.91 370.24 686.91S411.48 731.06 448.62 731.06S488.67 688.54 526.99 688.54S568.13 713.19 605.37 713.19S644.76 712.97 683.74 712.97S723.11 717.29 762.11 717.29S803.46 692.12 840.49 692.12S881.21 730.47 918.86 730.47S959.87 684.93 997.24 684.93S1037.02 718.4 1075.61 718.4S1115.59 698.29 1153.98 698.29S1193.25 723.37 1232.36 723.37S1271.6 691.33 1310.73 691.33S1351.67 720.76 1389.11 720.76S1429.1 694 1467.48 694S1508.3 713.2 1545.85 713.2S1586.08 692.76 1624.23 692.76S1664.94 713.17 1702.6 713.17S1742.26 686.4 1780.98 686.4S1821.82 725.7 1859.35 725.7L1828 869 L-100 869 Z;M-100 698.85C-59.06 696.37 -59.18 719.91 -21.63 719.91S18.56 681.41 56.75 681.41S97.81 725.08 135.12 725.08S175.82 726.02 213.5 726.02S253.98 718.3 291.87 718.3S332.47 686.89 370.24 686.89S409.59 731.18 448.62 731.18S488.16 683.74 526.99 683.74S566.37 728.19 605.37 728.19S646.35 685.22 683.74 685.22S725 723.68 762.11 723.68S803.07 698.82 840.49 698.82S881.08 713.54 918.86 713.54S958.08 695.29 997.24 695.29S1037.82 721.41 1075.61 721.41S1116.41 697.57 1153.98 697.57S1193.44 722.04 1232.36 722.04S1273.35 696.28 1310.73 696.28S1351.38 730.47 1389.11 730.47S1429.58 686.49 1467.48 686.49S1507.58 686.65 1545.85 686.65S1586.25 694.06 1624.23 694.06S1663.67 678.97 1702.6 678.97S1743.44 695.16 1780.98 695.16S1821.67 715.28 1859.35 715.28L1828 869 L-100 869 Z;M-100 714.48C-60.67 722.51 -59.39 722.59 -21.63 722.59S17.92 687.79 56.75 687.79S97.95 718.36 135.12 718.36S176.07 679.35 213.5 679.35S253.52 726.06 291.87 726.06S333.13 686.91 370.24 686.91S411.48 731.06 448.62 731.06S488.67 688.54 526.99 688.54S568.13 713.19 605.37 713.19S644.76 712.97 683.74 712.97S723.11 717.29 762.11 717.29S803.46 692.12 840.49 692.12S881.21 730.47 918.86 730.47S959.87 684.93 997.24 684.93S1037.02 718.4 1075.61 718.4S1115.59 698.29 1153.98 698.29S1193.25 723.37 1232.36 723.37S1271.6 691.33 1310.73 691.33S1351.67 720.76 1389.11 720.76S1429.1 694 1467.48 694S1508.3 713.2 1545.85 713.2S1586.08 692.76 1624.23 692.76S1664.94 713.17 1702.6 713.17S1742.26 686.4 1780.98 686.4S1821.82 725.7 1859.35 725.7L1828 869 L-100 869 Z"></animate>
  <animateTransform attributeName="transform" type="translate" dur="5s" begin="-4s" repeatCount="indefinite" values="0;10;0" calcMode="spline" keySplines="0.3 0 0.7 1;0.3 0 0.7 1"></animateTransform>
</path><path d="M-100 711.44C-58.86 720.27 -58.37 748.48 -18.99 748.48S22.85 717.31 62.02 717.31S104.11 740.45 143.03 740.45S185.25 719.95 224.03 719.95S264.73 750.11 305.04 750.11S347.52 708.66 386.05 708.66S427.7 746.77 467.06 746.77S508.04 714.32 548.07 714.32S589.09 743.45 629.08 743.45S669.82 745.87 710.08 745.87S752.01 751.8 791.09 751.8S833.37 714.54 872.1 714.54S913.58 743.03 953.11 743.03S995.19 715.46 1034.12 715.46S1076.76 754.38 1115.13 754.38S1155.67 720.63 1196.13 720.63S1236.64 742.59 1277.14 742.59S1318.9 705.95 1358.15 705.95S1399.53 759.93 1439.16 759.93S1480.14 720.87 1520.17 720.87S1561.96 747.32 1601.18 747.32S1643.16 715.79 1682.18 715.79S1724.24 746.79 1763.19 746.79S1803.75 705.07 1844.2 705.07L1828 869 L-100 869 Z" fill="#dfe8e8" stroke-width="0">
  <animate attributeName="d" dur="2.5s" repeatCount="indefinite" values="M-100 711.44C-58.86 720.27 -58.37 748.48 -18.99 748.48S22.85 717.31 62.02 717.31S104.11 740.45 143.03 740.45S185.25 719.95 224.03 719.95S264.73 750.11 305.04 750.11S347.52 708.66 386.05 708.66S427.7 746.77 467.06 746.77S508.04 714.32 548.07 714.32S589.09 743.45 629.08 743.45S669.82 745.87 710.08 745.87S752.01 751.8 791.09 751.8S833.37 714.54 872.1 714.54S913.58 743.03 953.11 743.03S995.19 715.46 1034.12 715.46S1076.76 754.38 1115.13 754.38S1155.67 720.63 1196.13 720.63S1236.64 742.59 1277.14 742.59S1318.9 705.95 1358.15 705.95S1399.53 759.93 1439.16 759.93S1480.14 720.87 1520.17 720.87S1561.96 747.32 1601.18 747.32S1643.16 715.79 1682.18 715.79S1724.24 746.79 1763.19 746.79S1803.75 705.07 1844.2 705.07L1828 869 L-100 869 Z;M-100 710.85C-58.52 705.88 -57.67 753.46 -18.99 753.46S23.2 706.34 62.02 706.34S103.35 721.15 143.03 721.15S184.87 711.81 224.03 711.81S264.88 744.11 305.04 744.11S346.35 704.51 386.05 704.51S427.03 745.18 467.06 745.18S507.93 716.35 548.07 716.35S590.13 703.37 629.08 703.37S671.64 717.81 710.08 717.81S750.93 703.26 791.09 703.26S832.37 714.94 872.1 714.94S913 744.86 953.11 744.86S993.81 715.68 1034.12 715.68S1075.21 751.08 1115.13 751.08S1155.71 713.36 1196.13 713.36S1238.08 748.24 1277.14 748.24S1317.87 713.76 1358.15 713.76S1400.21 748.69 1439.16 748.69S1480.43 702.76 1520.17 702.76S1562.49 747.23 1601.18 747.23S1643.22 701.76 1682.18 701.76S1723.89 755.95 1763.19 755.95S1805.46 713.35 1844.2 713.35L1828 869 L-100 869 Z;M-100 711.44C-58.86 720.27 -58.37 748.48 -18.99 748.48S22.85 717.31 62.02 717.31S104.11 740.45 143.03 740.45S185.25 719.95 224.03 719.95S264.73 750.11 305.04 750.11S347.52 708.66 386.05 708.66S427.7 746.77 467.06 746.77S508.04 714.32 548.07 714.32S589.09 743.45 629.08 743.45S669.82 745.87 710.08 745.87S752.01 751.8 791.09 751.8S833.37 714.54 872.1 714.54S913.58 743.03 953.11 743.03S995.19 715.46 1034.12 715.46S1076.76 754.38 1115.13 754.38S1155.67 720.63 1196.13 720.63S1236.64 742.59 1277.14 742.59S1318.9 705.95 1358.15 705.95S1399.53 759.93 1439.16 759.93S1480.14 720.87 1520.17 720.87S1561.96 747.32 1601.18 747.32S1643.16 715.79 1682.18 715.79S1724.24 746.79 1763.19 746.79S1803.75 705.07 1844.2 705.07L1828 869 L-100 869 Z"></animate>
  <animateTransform attributeName="transform" type="translate" dur="2.5s" begin="-2.25s" repeatCount="indefinite" values="0;10;0" calcMode="spline" keySplines="0.3 0 0.7 1;0.3 0 0.7 1"></animateTransform>
</path></g>
</svg>